<svg width="98" height="98" viewBox="0 0 98 98" fill="none" xmlns="http://www.w3.org/2000/svg">
<g clip-path="url(#clip0_1_1060)">
<mask id="mask0_1_1060" style="mask-type:luminance" maskUnits="userSpaceOnUse" x="0" y="0" width="98" height="98">
<path d="M97.1115 21.0418L20.6016 0.541016L0.100785 77.051L76.6107 97.5517L97.1115 21.0418Z" fill="white"/>
</mask>
<g mask="url(#mask0_1_1060)">
<path d="M38.4529 87.3274C37.2463 87.0041 36.4605 85.857 36.482 84.6081C36.5503 80.6276 35.8305 76.182 34.3223 71.2722C32.5533 65.3881 29.3581 59.5137 24.7368 53.6484C20.729 48.5035 16.3976 44.5667 11.7424 41.8384C10.6398 41.1924 10.0542 39.9042 10.385 38.6698C10.7093 37.4596 11.8238 36.6401 13.0766 36.6196C18.3807 36.533 23.7392 35.5209 29.1522 33.5833C35.3778 31.3364 40.9357 28.1275 45.8259 23.9567C50.1605 20.2355 53.5054 16.3027 55.8605 12.1585C56.4775 11.0728 57.7347 10.4908 58.9411 10.8141C60.1606 11.1408 60.9607 12.2944 60.9405 13.557C60.895 16.4076 61.2099 19.4222 61.8851 22.6007C62.7531 26.5348 64.1544 30.4695 66.0898 34.4049C68.1091 38.2915 70.541 41.9684 73.3845 45.4353C77.1107 49.9284 81.1728 53.472 85.5717 56.0664C86.6509 56.7028 87.2174 57.9672 86.8932 59.1772C86.5641 60.4054 85.4133 61.2189 84.1419 61.2263C80.908 61.245 77.4502 61.7461 73.7693 62.7291C69.3119 63.9551 65.0048 65.6839 60.8475 67.9156C56.7083 70.0809 53.1223 72.5724 50.0893 75.39C46.3209 78.8953 43.4645 82.4155 41.5208 85.9513C40.9177 87.0481 39.6614 87.6512 38.4529 87.3274Z" fill="#FFF945"/>
</g>
</g>
<defs>
<clipPath id="clip0_1_1060">
<rect width="79.2089" height="79.2089" fill="white" transform="translate(20.6016 0.541016) rotate(15)"/>
</clipPath>
</defs>
</svg>
