<svg width="142" height="99" viewBox="0 0 142 99" fill="none" xmlns="http://www.w3.org/2000/svg">
<path id="&#226;&#128;&#156;" d="M62 38.5586C62 48.9586 60.4 57.8919 57.2 65.3586C54 73.0919 49.8667 79.3586 44.8 84.1586C39.7333 89.2253 34 92.8253 27.6 94.9586C20.9333 97.3586 14.4 98.5586 7.99998 98.5586L7.99998 84.5586C14.9333 84.5586 21.4667 82.1586 27.6 77.3586C33.4667 72.8253 36.9333 66.5586 38 58.5586C37.2 58.8253 36.2667 59.0919 35.2 59.3586C34.4 59.6253 33.4667 59.8919 32.4 60.1586C31.0667 60.4253 29.6 60.5586 28 60.5586C20 60.5586 13.3333 57.4919 7.99998 51.3586C2.66665 45.4919 -5.24537e-06 38.5586 -5.94475e-06 30.5586C-6.64413e-06 22.5586 2.8 15.4919 8.4 9.35861C13.7333 3.49194 20.9333 0.558604 30 0.558604C40.1333 0.558603 48 4.29194 53.6 11.7586C59.2 19.4919 62 28.4253 62 38.5586ZM142 38.5586C142 48.9586 140.4 57.8919 137.2 65.3586C134 73.0919 129.867 79.3586 124.8 84.1586C119.733 89.2253 114 92.8253 107.6 94.9586C100.933 97.3586 94.4 98.5586 88 98.5586L88 84.5586C94.9333 84.5586 101.467 82.1586 107.6 77.3586C113.467 72.8253 116.933 66.5586 118 58.5586C117.2 58.8253 116.267 59.0919 115.2 59.3586C114.4 59.6253 113.467 59.8919 112.4 60.1586C111.067 60.4253 109.6 60.5586 108 60.5586C100 60.5586 93.3333 57.4919 88 51.3586C82.6667 45.4919 80 38.5586 80 30.5586C80 22.5586 82.8 15.4919 88.4 9.3586C93.7333 3.49193 100.933 0.558597 110 0.558597C120.133 0.558596 128 4.29193 133.6 11.7586C139.2 19.4919 142 28.4253 142 38.5586Z" fill="url(#paint0_linear_1_1144)"/>
<defs>
<linearGradient id="paint0_linear_1_1144" x1="71" y1="98.5586" x2="71" y2="0.5586" gradientUnits="userSpaceOnUse">
<stop stop-color="#DCFCE7"/>
<stop offset="1" stop-color="#DCFCE7" stop-opacity="0"/>
</linearGradient>
</defs>
</svg>
