<svg width="45" height="45" viewBox="0 0 45 45" fill="none" xmlns="http://www.w3.org/2000/svg">
<path d="M37.1665 12.5628C37.5297 12.5581 37.8767 12.4117 38.1335 12.1548C38.3904 11.898 38.5368 11.551 38.5415 11.1878V7.52116C38.5415 7.15649 38.3966 6.80675 38.1388 6.54889C37.8809 6.29102 37.5312 6.14616 37.1665 6.14616C36.8018 6.14616 36.4521 6.29102 36.1942 6.54889C35.9364 6.80675 35.7915 7.15649 35.7915 7.52116V11.1878C35.7963 11.551 35.9426 11.898 36.1995 12.1548C36.4563 12.4117 36.8033 12.5581 37.1665 12.5628ZM29.8332 10.7295C30.1964 10.7247 30.5434 10.5784 30.8002 10.3215C31.057 10.0647 31.2034 9.71769 31.2082 9.35449V3.85449C31.2082 3.48982 31.0633 3.14008 30.8054 2.88222C30.5476 2.62436 30.1978 2.47949 29.8332 2.47949C29.4685 2.47949 29.1188 2.62436 28.8609 2.88222C28.603 3.14008 28.4582 3.48982 28.4582 3.85449V9.35449C28.4629 9.71769 28.6093 10.0647 28.8661 10.3215C29.123 10.5784 29.47 10.7247 29.8332 10.7295ZM22.4998 12.5628C22.863 12.5581 23.21 12.4117 23.4669 12.1548C23.7237 11.898 23.8701 11.551 23.8748 11.1878V7.52116C23.8748 7.15649 23.73 6.80675 23.4721 6.54889C23.2142 6.29102 22.8645 6.14616 22.4998 6.14616C22.1352 6.14616 21.7854 6.29102 21.5276 6.54889C21.2697 6.80675 21.1248 7.15649 21.1248 7.52116V11.1878C21.1296 11.551 21.276 11.898 21.5328 12.1548C21.7897 12.4117 22.1366 12.5581 22.4998 12.5628ZM15.1665 10.7295C15.5297 10.7247 15.8767 10.5784 16.1335 10.3215C16.3904 10.0647 16.5368 9.71769 16.5415 9.35449V5.68783C16.5415 5.32315 16.3966 4.97342 16.1388 4.71555C15.8809 4.45769 15.5312 4.31283 15.1665 4.31283C14.8018 4.31283 14.4521 4.45769 14.1942 4.71555C13.9364 4.97342 13.7915 5.32315 13.7915 5.68783V9.35449C13.7963 9.71769 13.9426 10.0647 14.1995 10.3215C14.4563 10.5784 14.8033 10.7247 15.1665 10.7295Z" fill="#4ABB82"/>
<path d="M24.3331 41.8963H27.9998C31.7666 41.8915 35.3777 40.393 38.0412 37.7294C40.7048 35.0659 42.2033 31.4548 42.2081 27.688V18.5213C42.2033 17.6719 41.8638 16.8586 41.2631 16.258C40.6625 15.6574 39.8492 15.3178 38.9998 15.313H13.3331C12.4837 15.3178 11.6704 15.6574 11.0698 16.258C10.4692 16.8586 10.1296 17.6719 10.1248 18.5213V27.688C10.1296 31.4548 11.6281 35.0659 14.2917 37.7294C16.9552 40.393 20.5663 41.8915 24.3331 41.8963ZM38.9998 18.063C39.1214 18.063 39.2379 18.1113 39.3239 18.1972C39.4098 18.2832 39.4581 18.3998 39.4581 18.5213V27.688C39.4581 30.7269 38.2509 33.6414 36.1021 35.7903C33.9532 37.9391 31.0387 39.1463 27.9998 39.1463H24.3331C22.8284 39.1463 21.3384 38.8499 19.9482 38.2741C18.558 37.6983 17.2949 36.8543 16.2309 35.7903C15.1669 34.7263 14.3228 33.4631 13.747 32.0729C13.1712 30.6827 12.8748 29.1927 12.8748 27.688V18.5213C12.8748 18.3998 12.9231 18.2832 13.009 18.1972C13.095 18.1113 13.2116 18.063 13.3331 18.063H38.9998Z" fill="#1D1D35"/>
<path d="M8.74976 30.8962H11.4998C11.863 30.8914 12.2099 30.745 12.4668 30.4882C12.7236 30.2313 12.87 29.8844 12.8748 29.5212V20.3545C12.87 19.9913 12.7236 19.6443 12.4668 19.3875C12.2099 19.1306 11.863 18.9842 11.4998 18.9795H8.74976C7.16951 18.9795 5.65398 19.6072 4.53658 20.7246C3.41917 21.8421 2.79142 23.3576 2.79142 24.9378C2.79142 26.5181 3.41917 28.0336 4.53658 29.151C5.65398 30.2684 7.16951 30.8962 8.74976 30.8962ZM10.1248 28.1462H8.74976C7.89885 28.1462 7.0828 27.8081 6.48112 27.2065C5.87944 26.6048 5.54142 25.7887 5.54142 24.9378C5.54142 24.0869 5.87944 23.2709 6.48112 22.6692C7.0828 22.0675 7.89885 21.7295 8.74976 21.7295H10.1248V28.1462Z" fill="#1D1D35"/>
</svg>
