<svg width="45" height="45" viewBox="0 0 45 45" fill="none" xmlns="http://www.w3.org/2000/svg">
<path d="M22.0733 15.3151C21.7086 15.315 21.3589 15.1701 21.1011 14.9123C20.8433 14.6544 20.6984 14.3047 20.6983 13.9401V10.2734C20.6983 9.90876 20.8431 9.55903 21.101 9.30117C21.3588 9.0433 21.7086 8.89844 22.0733 8.89844C22.4379 8.89844 22.7877 9.0433 23.0455 9.30117C23.3034 9.55903 23.4483 9.90876 23.4483 10.2734V13.9401C23.4482 14.3047 23.3033 14.6544 23.0454 14.9123C22.7876 15.1701 22.4379 15.315 22.0733 15.3151Z" fill="#4ABB82"/>
<path d="M12.9066 15.3151C12.5419 15.315 12.1923 15.1701 11.9344 14.9123C11.6766 14.6544 11.5317 14.3047 11.5316 13.9401V10.2734C11.5316 9.90876 11.6765 9.55903 11.9343 9.30117C12.1922 9.0433 12.5419 8.89844 12.9066 8.89844C13.2713 8.89844 13.621 9.0433 13.8789 9.30117C14.1367 9.55903 14.2816 9.90876 14.2816 10.2734V13.9401C14.2815 14.3047 14.1366 14.6544 13.8788 14.9123C13.6209 15.1701 13.2712 15.315 12.9066 15.3151Z" fill="#4ABB82"/>
<path d="M31.2399 15.3151C30.8753 15.315 30.5256 15.1701 30.2677 14.9123C30.0099 14.6544 29.865 14.3047 29.8649 13.9401V10.2734C29.8649 9.90876 30.0098 9.55903 30.2676 9.30117C30.5255 9.0433 30.8752 8.89844 31.2399 8.89844C31.6046 8.89844 31.9543 9.0433 32.2122 9.30117C32.47 9.55903 32.6149 9.90876 32.6149 10.2734V13.9401C32.6148 14.3047 32.4699 14.6544 32.2121 14.9123C31.9542 15.1701 31.6046 15.315 31.2399 15.3151Z" fill="#4ABB82"/>
<path d="M38.5732 40.0653H5.57325C4.72266 40.0642 3.90721 39.7259 3.30575 39.1244C2.7043 38.523 2.36595 37.7075 2.36491 36.8569V27.6903C2.36595 26.8397 2.7043 26.0242 3.30575 25.4228C3.90721 24.8213 4.72266 24.483 5.57325 24.4819H38.5732C39.4238 24.483 40.2393 24.8213 40.8407 25.4228C41.4422 26.0242 41.7805 26.8397 41.7816 27.6903V36.8569C41.7805 37.7075 41.4422 38.523 40.8407 39.1244C40.2393 39.7259 39.4238 40.0642 38.5732 40.0653ZM5.57325 27.2319C5.45176 27.2322 5.33532 27.2805 5.24941 27.3664C5.16351 27.4523 5.11515 27.5688 5.11491 27.6903V36.8569C5.11515 36.9784 5.16351 37.0949 5.24941 37.1808C5.33532 37.2667 5.45176 37.315 5.57325 37.3153H38.5732C38.6947 37.315 38.8112 37.2667 38.8971 37.1808C38.983 37.0949 39.0313 36.9784 39.0316 36.8569V27.6903C39.0313 27.5688 38.983 27.4523 38.8971 27.3664C38.8112 27.2805 38.6947 27.2322 38.5732 27.2319H5.57325Z" fill="#1D1D35"/>
<path d="M36.7399 27.2319H7.40659C7.04194 27.2318 6.69226 27.0869 6.43442 26.8291C6.17658 26.5713 6.03168 26.2216 6.03159 25.8569V16.6903C6.03262 15.8397 6.37097 15.0242 6.97243 14.4228C7.57388 13.8213 8.38933 13.483 9.23992 13.4819H34.9066C35.7572 13.483 36.5726 13.8213 37.1741 14.4228C37.7755 15.0242 38.1139 15.8397 38.1149 16.6903V25.8569C38.1148 26.2216 37.9699 26.5713 37.7121 26.8291C37.4542 27.0869 37.1046 27.2318 36.7399 27.2319ZM8.78159 24.4819H35.3649V16.6903C35.3647 16.5688 35.3163 16.4523 35.2304 16.3664C35.1445 16.2805 35.0281 16.2322 34.9066 16.2319H9.23992C9.11843 16.2322 9.00199 16.2805 8.91609 16.3664C8.83018 16.4523 8.78182 16.5688 8.78159 16.6903V24.4819Z" fill="#1D1D35"/>
<path d="M22.0732 7.5236C23.0858 7.5236 23.9066 6.70279 23.9066 5.69027C23.9066 4.67774 23.0858 3.85693 22.0732 3.85693C21.0607 3.85693 20.2399 4.67774 20.2399 5.69027C20.2399 6.70279 21.0607 7.5236 22.0732 7.5236Z" fill="#4ABB82"/>
<path d="M12.9066 7.5236C13.9191 7.5236 14.7399 6.70279 14.7399 5.69027C14.7399 4.67774 13.9191 3.85693 12.9066 3.85693C11.8941 3.85693 11.0732 4.67774 11.0732 5.69027C11.0732 6.70279 11.8941 7.5236 12.9066 7.5236Z" fill="#4ABB82"/>
<path d="M31.2399 7.5236C32.2524 7.5236 33.0733 6.70279 33.0733 5.69027C33.0733 4.67774 32.2524 3.85693 31.2399 3.85693C30.2274 3.85693 29.4066 4.67774 29.4066 5.69027C29.4066 6.70279 30.2274 7.5236 31.2399 7.5236Z" fill="#4ABB82"/>
</svg>
