<svg width="40" height="41" viewBox="0 0 40 41" fill="none" xmlns="http://www.w3.org/2000/svg">
<path d="M39.1406 28.5698H0.859375C0.384766 28.5698 0 28.1851 0 27.7104C0 27.2358 0.384766 26.8511 0.859375 26.8511H39.1406C39.6152 26.8511 40 27.2358 40 27.7104C40 28.1851 39.6152 28.5698 39.1406 28.5698Z" fill="#4ABB82"/>
<path d="M36.758 3.02441H3.32148C1.52102 3.02441 0 4.50902 0 6.26637V30.0929C0 31.8502 1.52102 33.3349 3.32148 33.3349H16.758V36.3814H12.852C12.3774 36.3814 11.9927 36.7662 11.9927 37.2408C11.9927 37.7154 12.3774 38.1002 12.852 38.1002H27.1479C27.6225 38.1002 28.0073 37.7154 28.0073 37.2408C28.0073 36.7662 27.6225 36.3814 27.1479 36.3814H23.242V33.335H36.7579C38.5455 33.335 39.9999 31.8806 39.9999 30.0929V6.26637C40 4.47871 38.5456 3.02441 36.758 3.02441ZM21.5233 36.3814H18.4767V33.335H21.5233V36.3814ZM38.2812 30.0929C38.2812 30.9328 37.5979 31.6162 36.758 31.6162H3.32148C2.45266 31.6162 1.71875 30.9186 1.71875 30.0929V6.26637C1.71875 5.44066 2.45266 4.74309 3.32148 4.74309H36.758C37.5979 4.74309 38.2812 5.42645 38.2812 6.26637V30.0929Z" fill="#1D1D35"/>
<path d="M15.9325 23.4454C16.0374 23.3014 16.0936 23.1231 16.0941 22.9451V8.64917C16.1028 8.18565 15.6922 7.77823 15.2289 7.78979H5.70989C5.24661 7.77831 4.83614 8.18573 4.84474 8.64917V22.9451C4.83614 23.4061 5.24325 23.8138 5.70458 23.8045H15.2343C15.5067 23.8056 15.776 23.669 15.9325 23.4454ZM9.43661 15.7971L6.56349 20.1068V11.4874L9.43661 15.7971ZM7.30989 9.50854H13.629L10.4694 14.2478L7.30989 9.50854ZM10.4694 17.3464L13.629 22.0857H7.30989L10.4694 17.3464ZM11.5022 15.7971L14.3754 11.4874V20.1068L11.5022 15.7971Z" fill="#4ABB82"/>
<path d="M34.2959 14.2736H20C19.5254 14.2736 19.1406 13.8888 19.1406 13.4142V8.64893C19.1406 8.17432 19.5254 7.78955 20 7.78955H34.2959C34.7705 7.78955 35.1553 8.17432 35.1553 8.64893V13.4142C35.1553 13.8888 34.7705 14.2736 34.2959 14.2736ZM20.8594 12.5549H33.4366V9.5083H20.8594V12.5549Z" fill="#1D1D35"/>
<path d="M24.7653 23.8044H20C19.5254 23.8044 19.1406 23.4196 19.1406 22.945V18.1797C19.1406 17.7051 19.5254 17.3203 20 17.3203H24.7653C25.2399 17.3203 25.6247 17.7051 25.6247 18.1797V22.945C25.6247 23.4196 25.2399 23.8044 24.7653 23.8044ZM20.8594 22.0856H23.9059V19.0391H20.8594V22.0856Z" fill="#1D1D35"/>
<path d="M34.296 23.8044H29.5306C29.056 23.8044 28.6713 23.4196 28.6713 22.945V18.1797C28.6713 17.7051 29.056 17.3203 29.5306 17.3203H34.296C34.7706 17.3203 35.1553 17.7051 35.1553 18.1797V22.945C35.1553 23.4196 34.7706 23.8044 34.296 23.8044ZM30.39 22.0856H33.4366V19.0391H30.39V22.0856Z" fill="#1D1D35"/>
</svg>
