<svg width="40" height="41" viewBox="0 0 40 41" fill="none" xmlns="http://www.w3.org/2000/svg">
<g clip-path="url(#clip0_1_1517)">
<path d="M28.8558 24.2405L20.8594 20.043V11.6041C20.8594 11.1294 20.4746 10.7446 20 10.7446C19.5254 10.7446 19.1406 11.1294 19.1406 11.6041V20.0431L11.1442 24.2405C10.724 24.4611 10.5621 24.9806 10.7827 25.4009C11.0033 25.8211 11.5229 25.9829 11.9431 25.7624L19.9999 21.5332L28.0567 25.7624C28.1842 25.8293 28.3208 25.8611 28.4555 25.8611C28.7647 25.8611 29.0635 25.6936 29.2172 25.4009C29.4379 24.9806 29.276 24.4611 28.8558 24.2405Z" fill="#4ABB82"/>
<path d="M37.7711 11.0197C37.7704 10.7205 37.5971 10.4316 37.3372 10.2848L20.4247 0.673542C20.1666 0.525486 19.8334 0.525486 19.5754 0.673542L2.66283 10.2848C2.39828 10.4336 2.22671 10.7285 2.22804 11.032V30.0932C2.22804 30.4023 2.39406 30.6876 2.6629 30.8404L19.5754 40.4514C19.8334 40.5996 20.1667 40.5996 20.4247 40.4514L37.3371 30.8404C37.6059 30.6876 37.7719 30.4024 37.7719 30.0932V11.032C37.772 11.0279 37.7712 11.0238 37.7711 11.0197ZM28.4311 15.1355L20.8595 11.0888V2.89766L35.2109 11.0534L28.4311 15.1355ZM20 28.5465L12.4032 24.4863V16.6385L20 12.5784L27.5969 16.6385V24.4862L20 28.5465ZM11.5691 15.1355L4.78928 11.0534L19.1406 2.89766V11.0888L11.5691 15.1355ZM3.94689 12.5527L10.6843 16.6092V25.0014C10.6843 25.3185 10.8589 25.6098 11.1386 25.7593L19.1406 30.036V38.2272L3.94689 29.5931V12.5527ZM20.8594 38.2273V30.0361L28.8614 25.7594C29.1411 25.6099 29.3157 25.3186 29.3157 25.0015V16.6092L36.0531 12.5526V29.5931L20.8594 38.2273Z" fill="#1D1D35"/>
</g>
<defs>
<clipPath id="clip0_1_1517">
<rect width="40" height="40" fill="white" transform="translate(0 0.5625)"/>
</clipPath>
</defs>
</svg>
