<svg width="40" height="41" viewBox="0 0 40 41" fill="none" xmlns="http://www.w3.org/2000/svg">
<path d="M39.1406 12.0469H0.859375V13.7656H39.1406V12.0469Z" fill="#4ABB82"/>
<path d="M39.1406 17.1514H0.859375V18.8701H39.1406V17.1514Z" fill="#4ABB82"/>
<path d="M31.4844 29.0783H28.9323C24.4116 28.9062 24.4151 22.4258 28.9323 22.2554H31.4844C36.0051 22.4274 36.0017 28.9078 31.4844 29.0783ZM28.9323 23.9741C26.6893 24.0595 26.6909 27.275 28.9323 27.3595H31.4844C33.7275 27.2741 33.7258 24.0587 31.4844 23.9741H28.9323Z" fill="#4ABB82"/>
<path d="M9.79166 29.0781H5.96354C4.82455 29.0359 4.82541 27.4013 5.96354 27.3594H9.79166C10.9307 27.4016 10.9299 29.0362 9.79166 29.0781Z" fill="#1D1D35"/>
<path d="M13.6198 23.9741H5.96354C4.82455 23.9319 4.82541 22.2972 5.96354 22.2554H13.6198C14.7588 22.2976 14.758 23.9322 13.6198 23.9741Z" fill="#1D1D35"/>
<path d="M35.3125 34.1824H4.6875C2.10281 34.1824 0 32.0796 0 29.4949V11.6304C0 9.04568 2.10281 6.94287 4.6875 6.94287H35.3125C37.8972 6.94287 40 9.04568 40 11.6304V29.495C40 32.0797 37.8972 34.1824 35.3125 34.1824ZM4.6875 8.66154C3.05055 8.66154 1.71875 9.99334 1.71875 11.6303V29.4949C1.71875 31.1319 3.05055 32.4637 4.6875 32.4637H35.3125C36.9495 32.4637 38.2812 31.1319 38.2812 29.4949V11.6304C38.2812 9.99342 36.9495 8.66162 35.3125 8.66162L4.6875 8.66154Z" fill="#1D1D35"/>
</svg>
