<svg width="40" height="41" viewBox="0 0 40 41" fill="none" xmlns="http://www.w3.org/2000/svg">
<g clip-path="url(#clip0_1_1549)">
<path d="M30.6755 6.11588C30.8084 5.84823 30.7837 5.5155 30.6187 5.26729L27.7974 0.951771C27.5376 0.554586 27.005 0.442868 26.6078 0.70271C26.2106 0.962396 26.0991 1.49505 26.3588 1.89223L27.3311 3.37949C24.496 2.17348 21.3735 1.67481 18.2681 1.96177C13.9431 2.36192 9.86683 4.27652 6.79044 7.35291C3.44265 10.7007 1.50399 15.1485 1.33141 19.8771C1.15977 24.5805 2.74492 29.1333 5.79483 32.6964C5.96482 32.8949 6.20568 32.9969 6.4481 32.9969C6.64576 32.9969 6.84451 32.929 7.00646 32.7903C7.367 32.4817 7.40911 31.9392 7.10052 31.5786C1.38383 24.9 1.78149 14.7926 8.00575 8.56829C13.0178 3.55621 20.5691 2.25926 26.8713 5.05011L24.701 5.17073C24.2272 5.19714 23.8643 5.6026 23.8907 6.07651C23.9162 6.53416 24.2952 6.8883 24.748 6.88822C24.7641 6.88822 24.7803 6.88775 24.7965 6.88689L29.9502 6.60033C30.2555 6.58416 30.5457 6.39416 30.6755 6.11588Z" fill="#1D1D35"/>
<path d="M34.2055 8.42906C33.8969 8.06844 33.3544 8.02625 32.9938 8.335C32.6333 8.64359 32.5912 9.18609 32.8997 9.54663C38.6161 16.2253 38.2184 26.3326 31.9942 32.5567C26.9822 37.5688 19.4308 38.8658 13.1287 36.0749L15.2989 35.9543C15.7727 35.9279 16.1356 35.5224 16.1092 35.0485C16.0829 34.5746 15.678 34.2131 15.2034 34.2381L10.0497 34.5247C9.40707 34.5419 9.0102 35.3324 9.38129 35.8579L12.2026 40.1734C12.3674 40.4256 12.6423 40.5625 12.9227 40.5625C13.0839 40.5625 13.247 40.5172 13.3921 40.4224C13.7894 40.1627 13.9009 39.6301 13.6412 39.2328L12.6695 37.7465C14.9811 38.7297 17.4837 39.2425 20.0124 39.2425C20.5848 39.2425 21.1586 39.2162 21.7318 39.1632C26.0569 38.763 30.1331 36.8484 33.2095 33.772C36.5572 30.4242 38.496 25.9765 38.6685 21.248C38.8403 16.5447 37.2553 11.9922 34.2055 8.42906Z" fill="#1D1D35"/>
<path d="M28.0466 21.7228H27.1116V14.4404C27.1116 14.081 26.8192 13.7886 26.4598 13.7886H25.1853C24.9649 13.7886 24.7612 13.8986 24.6402 14.0829L19.3042 22.2195C19.0472 22.6115 19.0267 23.0917 19.2494 23.5041C19.4722 23.9165 19.885 24.1627 20.3537 24.1627H24.6716V26.6846C24.6716 27.044 24.964 27.3365 25.3235 27.3365H26.4598C26.8192 27.3365 27.1116 27.044 27.1116 26.6846V24.1627H28.0466C28.4061 24.1627 28.6985 23.8703 28.6985 23.5109V22.3746C28.6986 22.0152 28.4062 21.7228 28.0466 21.7228ZM24.6717 18.641V21.7227H22.6507L24.6717 18.641Z" fill="#4ABB82"/>
<path d="M18.2896 19.3873C18.4128 19.2642 18.4806 19.1005 18.4806 18.9264V14.4404C18.4806 14.081 18.1882 13.7886 17.8287 13.7886H11.9533C11.5938 13.7886 11.3014 14.081 11.3014 14.4404V17.1636C11.3014 17.5231 11.5938 17.8155 11.9533 17.8155H13.0681C13.4276 17.8155 13.72 17.5231 13.72 17.1636V16.2368H16.0405V18.7555L11.4913 23.3253C11.3688 23.4484 11.3013 23.6117 11.3013 23.7852V26.6847C11.3013 27.0441 11.5938 27.3365 11.9532 27.3365H17.8287C18.1881 27.3365 18.4805 27.0441 18.4805 26.6847V25.5483C18.4805 25.1888 18.1881 24.8964 17.8287 24.8964H13.72V23.9568L18.2896 19.3873Z" fill="#4ABB82"/>
</g>
<defs>
<clipPath id="clip0_1_1549">
<rect width="40" height="40" fill="white" transform="translate(0 0.5625)"/>
</clipPath>
</defs>
</svg>
