<svg width="40" height="41" viewBox="0 0 40 41" fill="none" xmlns="http://www.w3.org/2000/svg">
<g clip-path="url(#clip0_1_1561)">
<path d="M27.9422 20.4973H20.8594V15.068H24.7653C25.2399 15.068 25.6247 14.6833 25.6247 14.2087V9.44336C25.6247 8.96875 25.2399 8.58398 24.7652 8.58398C22.759 8.58398 20.9958 9.64062 20 11.2258C19.0041 9.64062 17.241 8.58398 15.2347 8.58398C14.7601 8.58398 14.3752 8.96875 14.3752 9.44336V14.2087C14.3752 14.4366 14.4658 14.6552 14.627 14.8163C14.7881 14.9775 15.0067 15.068 15.2346 15.068H19.1406V20.4973H12.0577C11.5831 20.4973 11.1984 20.882 11.1984 21.3566C11.1984 21.8312 11.5831 22.216 12.0577 22.216H19.1406V28.5046C19.1406 28.9792 19.5254 29.364 20 29.364C20.4746 29.364 20.8594 28.9792 20.8594 28.5046V22.216H27.9422C28.4168 22.216 28.8016 21.8312 28.8016 21.3566C28.8016 20.882 28.4168 20.4973 27.9422 20.4973ZM23.9059 10.398V13.3494H20.9546C21.2848 11.8841 22.4407 10.7282 23.9059 10.398ZM16.0941 13.3493L16.0941 10.398C17.5593 10.7281 18.7152 11.8841 19.0454 13.3493H16.0941Z" fill="#4ABB82"/>
<path d="M27.9422 29.3638H12.0578C11.5832 29.3638 11.1984 28.979 11.1984 28.5044V14.2085C11.1984 13.7339 11.5832 13.3491 12.0578 13.3491H27.9422C28.4168 13.3491 28.8016 13.7339 28.8016 14.2085V28.5044C28.8016 28.979 28.4168 29.3638 27.9422 29.3638ZM12.9172 27.6451H27.0828V15.0679H12.9172V27.6451Z" fill="#1D1D35"/>
<path d="M39.1406 21.4219H35.9637C35.4891 21.4219 35.1044 21.0371 35.1044 20.5625C35.1044 20.0879 35.4891 19.7031 35.9637 19.7031H39.1406C39.6152 19.7031 40 20.0879 40 20.5625C40 21.0371 39.6152 21.4219 39.1406 21.4219Z" fill="#4ABB82"/>
<path d="M4.03625 21.4219H0.859375C0.384766 21.4219 0 21.0371 0 20.5625C0 20.0879 0.384766 19.7031 0.859375 19.7031H4.03625C4.51086 19.7031 4.89563 20.0879 4.89563 20.5625C4.89563 21.0371 4.51086 21.4219 4.03625 21.4219Z" fill="#4ABB82"/>
<path d="M20 5.45813C19.5254 5.45813 19.1406 5.07336 19.1406 4.59875V1.42188C19.1406 0.947266 19.5254 0.5625 20 0.5625C20.4746 0.5625 20.8594 0.947266 20.8594 1.42188V4.59875C20.8594 5.07336 20.4746 5.45813 20 5.45813Z" fill="#4ABB82"/>
<path d="M20 40.5626C19.5254 40.5626 19.1406 40.1779 19.1406 39.7032V36.5264C19.1406 36.0518 19.5254 35.667 20 35.667C20.4746 35.667 20.8594 36.0518 20.8594 36.5264V39.7032C20.8594 40.1779 20.4746 40.5626 20 40.5626Z" fill="#4ABB82"/>
<path d="M31.288 10.1337C31.0681 10.1337 30.8482 10.0498 30.6804 9.88197C30.3448 9.54635 30.3448 9.00221 30.6804 8.66658L32.9268 6.42018C33.2624 6.08455 33.8066 6.08455 34.1422 6.42018C34.4777 6.7558 34.4777 7.29994 34.1422 7.63557L31.8958 9.88197C31.728 10.0498 31.508 10.1337 31.288 10.1337Z" fill="#4ABB82"/>
<path d="M6.46555 34.9564C6.24563 34.9564 6.0257 34.8725 5.85789 34.7047C5.52234 34.3691 5.52234 33.825 5.85789 33.4893L8.1043 31.2429C8.43992 30.9073 8.98406 30.9073 9.31969 31.2429C9.65524 31.5786 9.65524 32.1227 9.31969 32.4583L7.0732 34.7048C6.90539 34.8726 6.68547 34.9564 6.46555 34.9564Z" fill="#4ABB82"/>
<path d="M8.71196 10.1337C8.49203 10.1337 8.27211 10.0498 8.1043 9.88197L5.85782 7.63557C5.52227 7.29994 5.52227 6.7558 5.85782 6.42018C6.19344 6.08455 6.73758 6.08455 7.07321 6.42018L9.31961 8.66658C9.65516 9.00221 9.65516 9.54635 9.31961 9.88197C9.1518 10.0498 8.93188 10.1337 8.71196 10.1337Z" fill="#4ABB82"/>
<path d="M33.5344 34.9564C33.3145 34.9564 33.0946 34.8725 32.9268 34.7047L30.6804 32.4583C30.3448 32.1227 30.3448 31.5786 30.6804 31.2429C31.016 30.9073 31.5602 30.9073 31.8958 31.2429L34.1422 33.4893C34.4777 33.825 34.4777 34.3691 34.1422 34.7047C33.9744 34.8726 33.7544 34.9564 33.5344 34.9564Z" fill="#4ABB82"/>
</g>
<defs>
<clipPath id="clip0_1_1561">
<rect width="40" height="40" fill="white" transform="translate(0 0.5625)"/>
</clipPath>
</defs>
</svg>
