<svg width="25" height="25" viewBox="0 0 25 25" fill="none" xmlns="http://www.w3.org/2000/svg">
<path d="M19.3136 22.0898H15.8136C15.0179 22.0898 14.2549 21.7738 13.6923 21.2112C13.1297 20.6486 12.8136 19.8855 12.8136 19.0898V13.5898C12.8136 13.3246 12.919 13.0703 13.1065 12.8827C13.294 12.6952 13.5484 12.5898 13.8136 12.5898H19.3136C20.1092 12.5898 20.8723 12.9059 21.4349 13.4685C21.9975 14.0311 22.3136 14.7942 22.3136 15.5898V19.0898C22.3136 19.8855 21.9975 20.6486 21.4349 21.2112C20.8723 21.7738 20.1092 22.0898 19.3136 22.0898ZM14.8136 14.5898V19.0898C14.8136 19.3551 14.919 19.6094 15.1065 19.797C15.294 19.9845 15.5484 20.0898 15.8136 20.0898H19.3136C19.5788 20.0898 19.8332 19.9845 20.0207 19.797C20.2082 19.6094 20.3136 19.3551 20.3136 19.0898V15.5898C20.3136 15.3246 20.2082 15.0703 20.0207 14.8827C19.8332 14.6952 19.5788 14.5898 19.3136 14.5898H14.8136Z" fill="#8896AB"/>
<path d="M10.8136 11.5898H5.3136C4.51795 11.5898 3.75489 11.2738 3.19228 10.7112C2.62967 10.1486 2.3136 9.38549 2.3136 8.58984V5.08984C2.3136 4.29419 2.62967 3.53113 3.19228 2.96852C3.75489 2.40591 4.51795 2.08984 5.3136 2.08984H8.8136C9.60925 2.08984 10.3723 2.40591 10.9349 2.96852C11.4975 3.53113 11.8136 4.29419 11.8136 5.08984V10.5898C11.8136 10.8551 11.7082 11.1094 11.5207 11.297C11.3332 11.4845 11.0788 11.5898 10.8136 11.5898ZM5.3136 4.08984C5.04838 4.08984 4.79403 4.1952 4.60649 4.38274C4.41896 4.57027 4.3136 4.82463 4.3136 5.08984V8.58984C4.3136 8.85506 4.41896 9.10941 4.60649 9.29695C4.79403 9.48449 5.04838 9.58984 5.3136 9.58984H9.8136V5.08984C9.8136 4.82463 9.70824 4.57027 9.52071 4.38274C9.33317 4.1952 9.07881 4.08984 8.8136 4.08984H5.3136Z" fill="#556987"/>
<path d="M19.3136 11.5898H13.8136C13.5484 11.5898 13.294 11.4845 13.1065 11.297C12.919 11.1094 12.8136 10.8551 12.8136 10.5898V5.08984C12.8136 4.29419 13.1297 3.53113 13.6923 2.96852C14.2549 2.40591 15.0179 2.08984 15.8136 2.08984H19.3136C20.1092 2.08984 20.8723 2.40591 21.4349 2.96852C21.9975 3.53113 22.3136 4.29419 22.3136 5.08984V8.58984C22.3136 9.38549 21.9975 10.1486 21.4349 10.7112C20.8723 11.2738 20.1092 11.5898 19.3136 11.5898ZM14.8136 9.58984H19.3136C19.5788 9.58984 19.8332 9.48449 20.0207 9.29695C20.2082 9.10941 20.3136 8.85506 20.3136 8.58984V5.08984C20.3136 4.82463 20.2082 4.57027 20.0207 4.38274C19.8332 4.1952 19.5788 4.08984 19.3136 4.08984H15.8136C15.5484 4.08984 15.294 4.1952 15.1065 4.38274C14.919 4.57027 14.8136 4.82463 14.8136 5.08984V9.58984Z" fill="#556987"/>
<path d="M8.8136 22.0898H5.3136C4.51795 22.0898 3.75489 21.7738 3.19228 21.2112C2.62967 20.6486 2.3136 19.8855 2.3136 19.0898V15.5898C2.3136 14.7942 2.62967 14.0311 3.19228 13.4685C3.75489 12.9059 4.51795 12.5898 5.3136 12.5898H10.8136C11.0788 12.5898 11.3332 12.6952 11.5207 12.8827C11.7082 13.0703 11.8136 13.3246 11.8136 13.5898V19.0898C11.8136 19.8855 11.4975 20.6486 10.9349 21.2112C10.3723 21.7738 9.60925 22.0898 8.8136 22.0898ZM5.3136 14.5898C5.04838 14.5898 4.79403 14.6952 4.60649 14.8827C4.41896 15.0703 4.3136 15.3246 4.3136 15.5898V19.0898C4.3136 19.3551 4.41896 19.6094 4.60649 19.797C4.79403 19.9845 5.04838 20.0898 5.3136 20.0898H8.8136C9.07881 20.0898 9.33317 19.9845 9.52071 19.797C9.70824 19.6094 9.8136 19.3551 9.8136 19.0898V14.5898H5.3136Z" fill="#556987"/>
</svg>
