<svg width="25" height="25" viewBox="0 0 25 25" fill="none" xmlns="http://www.w3.org/2000/svg">
<path d="M8.43472 22.0897C7.98697 22.0927 7.54448 21.9931 7.14123 21.7985C6.73798 21.6038 6.38471 21.3194 6.10854 20.9669C5.83237 20.6144 5.64066 20.2034 5.54812 19.7653C5.45558 19.3272 5.46468 18.8737 5.57472 18.4397L6.83472 13.4397C6.86196 13.3079 6.91553 13.1829 6.9922 13.0723C7.06888 12.9617 7.16709 12.8678 7.28096 12.796C7.39483 12.7243 7.522 12.6763 7.65487 12.6548C7.78774 12.6334 7.92356 12.639 8.0542 12.6714C8.18485 12.7037 8.30762 12.762 8.41517 12.843C8.52272 12.9239 8.61283 13.0256 8.68011 13.1422C8.74739 13.2588 8.79044 13.3877 8.8067 13.5213C8.82296 13.6549 8.81208 13.7904 8.77472 13.9197L7.51472 18.9197C7.49059 19.0572 7.49553 19.1983 7.52922 19.3338C7.56291 19.4693 7.6246 19.5962 7.71032 19.7064C7.79605 19.8167 7.9039 19.9077 8.02694 19.9737C8.14999 20.0397 8.28549 20.0792 8.42472 20.0897C8.63681 20.0911 8.84313 20.0207 9.01015 19.89C9.17718 19.7592 9.29509 19.5759 9.34472 19.3697L10.7147 13.8997C10.742 13.7679 10.7955 13.6429 10.8722 13.5323C10.9489 13.4217 11.0471 13.3278 11.161 13.256C11.2748 13.1843 11.402 13.1363 11.5349 13.1148C11.6677 13.0934 11.8036 13.099 11.9342 13.1314C12.0648 13.1637 12.1876 13.222 12.2952 13.303C12.4027 13.3839 12.4928 13.4856 12.5601 13.6022C12.6274 13.7188 12.6704 13.8477 12.6867 13.9813C12.703 14.1149 12.6921 14.2504 12.6547 14.3797L11.2847 19.8597C11.1172 20.491 10.7482 21.0503 10.2338 21.4528C9.71943 21.8553 9.08776 22.0789 8.43472 22.0897Z" fill="#8896AB"/>
<path d="M10.0347 14.6996H8.35471C7.08952 14.6425 5.89508 14.0998 5.01996 13.1843C4.14484 12.2688 3.65646 11.0511 3.65646 9.78463C3.65646 8.51816 4.14484 7.30046 5.01996 6.38497C5.89508 5.46948 7.08952 4.92671 8.35471 4.86963H10.0347C10.2999 4.86963 10.5543 4.97499 10.7418 5.16252C10.9294 5.35006 11.0347 5.60441 11.0347 5.86963V13.6996C11.0347 13.9648 10.9294 14.2192 10.7418 14.4067C10.5543 14.5943 10.2999 14.6996 10.0347 14.6996ZM8.35471 6.86963C7.61112 6.9132 6.91229 7.23929 6.40123 7.78118C5.89017 8.32306 5.60552 9.03976 5.60552 9.78463C5.60552 10.5295 5.89017 11.2462 6.40123 11.7881C6.91229 12.33 7.61112 12.6561 8.35471 12.6996H9.03471V6.86963H8.35471Z" fill="#556987"/>
<path d="M18.9447 17.4797C18.5404 17.4778 18.1401 17.3997 17.7647 17.2497C16.9647 16.9297 16.1247 16.6197 15.2547 16.3197C13.4647 15.6897 11.6047 15.1397 9.7447 14.6697C9.52468 14.613 9.33053 14.4831 9.1942 14.3013C9.05788 14.1195 8.98752 13.8968 8.9947 13.6697V5.86967C8.98752 5.64258 9.05788 5.41981 9.1942 5.23804C9.33053 5.05628 9.52468 4.92636 9.7447 4.86967C11.5947 4.39967 13.4547 3.86967 15.2547 3.21967C16.1247 2.91967 16.9647 2.59967 17.7647 2.28967C18.2539 2.09769 18.7825 2.02796 19.3047 2.08653C19.8269 2.1451 20.327 2.3302 20.7615 2.62577C21.196 2.92134 21.5518 3.31846 21.798 3.78267C22.0443 4.24689 22.1736 4.76417 22.1747 5.28967V14.1997C22.1738 14.7282 22.0439 15.2485 21.7965 15.7155C21.5491 16.1825 21.1915 16.5821 20.7547 16.8797C20.2264 17.259 19.595 17.4683 18.9447 17.4797ZM10.9947 12.9197C12.6547 13.3597 14.3047 13.8697 15.9147 14.4297C16.8047 14.7397 17.6747 15.0597 18.5047 15.4297C18.6886 15.5059 18.8888 15.534 19.0866 15.5112C19.2843 15.4885 19.473 15.4157 19.6347 15.2997C19.7997 15.1899 19.9353 15.0414 20.0294 14.867C20.1236 14.6926 20.1735 14.4978 20.1747 14.2997V5.32967C20.1709 5.13201 20.1199 4.93811 20.026 4.76416C19.9321 4.59021 19.7979 4.44123 19.6347 4.32967C19.4709 4.21786 19.282 4.14837 19.0848 4.12743C18.8876 4.10649 18.6883 4.13475 18.5047 4.20967C17.6747 4.53967 16.8047 4.85967 15.9147 5.20967C14.2947 5.76967 12.6447 6.27967 10.9947 6.70967V12.9197Z" fill="#556987"/>
</svg>
