<svg width="20" height="19" viewBox="0 0 20 19" fill="none" xmlns="http://www.w3.org/2000/svg">
<path d="M19.3336 9.10844V9.77504C19.3336 10.1432 19.0352 10.4417 18.667 10.4417H11.0003V18.1084C11.0003 18.4765 10.7018 18.775 10.3336 18.775H9.66702C9.29882 18.775 9.00032 18.4765 9.00032 18.1084V10.4417H1.33366C0.965473 10.4417 0.666992 10.1432 0.666992 9.77504V9.10844C0.666992 8.74024 0.965473 8.44174 1.33366 8.44174H9.00032V0.775059C9.00032 0.406869 9.29882 0.108398 9.66702 0.108398H10.3336C10.7018 0.108398 11.0003 0.406869 11.0003 0.775059V8.44174H18.667C19.0352 8.44174 19.3336 8.74024 19.3336 9.10844Z" fill="#1D1D35"/>
</svg>
