<svg width="45" height="45" viewBox="0 0 45 45" fill="none" xmlns="http://www.w3.org/2000/svg">
<path d="M29.1242 41.8988H15.0222C14.6576 41.8988 14.3078 41.7539 14.05 41.496C13.7921 41.2382 13.6472 40.8884 13.6472 40.5238V34.7414C13.6472 32.5067 14.535 30.3635 16.1152 28.7833C17.6953 27.2032 19.8385 26.3154 22.0732 26.3154C24.308 26.3154 26.4511 27.2032 28.0313 28.7833C29.6115 30.3635 30.4993 32.5067 30.4993 34.7414V40.5238C30.4993 40.8884 30.3544 41.2382 30.0965 41.496C29.8387 41.7539 29.4889 41.8988 29.1242 41.8988ZM16.3972 39.1488H27.7492V34.7414C27.7492 33.2361 27.1512 31.7923 26.0868 30.7279C25.0223 29.6634 23.5786 29.0654 22.0732 29.0654C20.5679 29.0654 19.1242 29.6634 18.0597 30.7279C16.9953 31.7923 16.3972 33.2361 16.3972 34.7414V39.1488Z" fill="#4ABB82"/>
<path d="M34.9066 41.8989H9.23991C7.90322 41.8974 6.6217 41.3658 5.67652 40.4206C4.73134 39.4754 4.1997 38.1939 4.19824 36.8572V21.7139C4.19824 21.3492 4.34311 20.9995 4.60097 20.7416C4.85883 20.4837 5.20857 20.3389 5.57324 20.3389C5.93791 20.3389 6.28765 20.4837 6.54551 20.7416C6.80338 20.9995 6.94824 21.3492 6.94824 21.7139V36.8572C6.94873 37.4648 7.19033 38.0475 7.61999 38.4771C8.04966 38.9068 8.63227 39.1484 9.23991 39.1489H34.9066C35.5142 39.1484 36.0968 38.9068 36.5265 38.4771C36.9562 38.0475 37.1978 37.4648 37.1982 36.8572V21.7139C37.1982 21.3492 37.3431 20.9995 37.601 20.7416C37.8588 20.4837 38.2086 20.3389 38.5732 20.3389C38.9379 20.3389 39.2877 20.4837 39.5455 20.7416C39.8034 20.9995 39.9482 21.3492 39.9482 21.7139V36.8572C39.9468 38.1939 39.4151 39.4754 38.47 40.4206C37.5248 41.3658 36.2433 41.8974 34.9066 41.8989Z" fill="#1D1D35"/>
<path d="M29.4066 23.5653C28.7196 23.5658 28.0398 23.4255 27.4092 23.1531C26.7785 22.8807 26.2104 22.4819 25.7399 21.9813C25.2692 22.4816 24.7011 22.8803 24.0705 23.1529C23.4399 23.4254 22.7602 23.566 22.0732 23.566C21.3863 23.566 20.7066 23.4254 20.076 23.1529C19.4454 22.8803 18.8773 22.4816 18.4066 21.9813C17.9362 22.4813 17.3684 22.8798 16.7383 23.1523C16.1082 23.4248 15.429 23.5655 14.7425 23.5659C14.056 23.5662 13.3767 23.4261 12.7463 23.1543C12.116 22.8824 11.5478 22.4845 11.0769 21.985C10.9541 22.1151 10.8202 22.2416 10.6827 22.3608C10.1226 22.8361 9.466 23.1841 8.75827 23.381C8.05054 23.5779 7.30852 23.6189 6.58341 23.5011C5.38556 23.2759 4.30564 22.6351 3.53393 21.6917C2.76222 20.7482 2.34823 19.5627 2.36491 18.344V14.857C2.36549 14.6436 2.41571 14.4334 2.51158 14.2428L6.99591 5.27047C7.41175 4.43048 8.05478 3.72393 8.85199 3.23102C9.64919 2.73811 10.5686 2.47861 11.5059 2.48197H32.6406C33.5777 2.47844 34.497 2.73767 35.2942 3.23024C36.0913 3.72281 36.7345 4.42899 37.1506 5.26864L41.6367 14.2428C41.732 14.4335 41.7816 14.6438 41.7816 14.857V18.344C41.7986 19.5623 41.385 20.7476 40.6135 21.6907C39.8421 22.6339 38.7624 23.2744 37.5649 23.4993C36.8396 23.6185 36.0971 23.5785 35.3889 23.3819C34.6807 23.1853 34.0238 22.8368 33.4637 22.3608C33.3263 22.242 33.1948 22.1166 33.0696 21.985C32.599 22.4841 32.0313 22.8818 31.4014 23.1536C30.7714 23.4254 30.0926 23.5655 29.4066 23.5653ZM5.11491 15.1815V18.344C5.09451 18.909 5.27366 19.4632 5.62095 19.9094C5.96823 20.3555 6.46149 20.6652 7.01424 20.7841C7.34625 20.8401 7.68645 20.8232 8.01126 20.7346C8.33607 20.6459 8.63771 20.4877 8.89524 20.2708C9.14766 20.0551 9.35021 19.7872 9.48886 19.4855C9.6275 19.1838 9.69895 18.8556 9.69824 18.5236C9.69824 18.159 9.84311 17.8092 10.101 17.5514C10.3588 17.2935 10.7086 17.1486 11.0732 17.1486C11.4379 17.1486 11.7877 17.2935 12.0455 17.5514C12.3034 17.8092 12.4482 18.159 12.4482 18.5236C12.4482 19.1314 12.6897 19.7143 13.1195 20.1441C13.5492 20.5739 14.1321 20.8153 14.7399 20.8153C15.3477 20.8153 15.9306 20.5739 16.3604 20.1441C16.7901 19.7143 17.0316 19.1314 17.0316 18.5236C17.0316 18.159 17.1764 17.8092 17.4343 17.5514C17.6922 17.2935 18.0419 17.1486 18.4066 17.1486C18.7712 17.1486 19.121 17.2935 19.3788 17.5514C19.6367 17.8092 19.7816 18.159 19.7816 18.5236C19.7816 19.1314 20.023 19.7143 20.4528 20.1441C20.8826 20.5739 21.4655 20.8153 22.0732 20.8153C22.681 20.8153 23.2639 20.5739 23.6937 20.1441C24.1235 19.7143 24.3649 19.1314 24.3649 18.5236C24.3649 18.159 24.5098 17.8092 24.7676 17.5514C25.0255 17.2935 25.3752 17.1486 25.7399 17.1486C26.1046 17.1486 26.4543 17.2935 26.7122 17.5514C26.97 17.8092 27.1149 18.159 27.1149 18.5236C27.1149 19.1314 27.3564 19.7143 27.7861 20.1441C28.2159 20.5739 28.7988 20.8153 29.4066 20.8153C30.0144 20.8153 30.5973 20.5739 31.027 20.1441C31.4568 19.7143 31.6982 19.1314 31.6982 18.5236C31.6982 18.159 31.8431 17.8092 32.101 17.5514C32.3588 17.2935 32.7086 17.1486 33.0732 17.1486C33.4379 17.1486 33.7877 17.2935 34.0455 17.5514C34.3034 17.8092 34.4482 18.159 34.4482 18.5236C34.4474 18.8582 34.52 19.189 34.6609 19.4925C34.8018 19.796 35.0075 20.0649 35.2636 20.2803C35.5197 20.4956 35.8199 20.6522 36.1431 20.7389C36.4663 20.8257 36.8046 20.8405 37.1341 20.7823C37.6863 20.6634 38.1791 20.3539 38.5261 19.9081C38.873 19.4622 39.052 18.9085 39.0316 18.344V15.1815L34.6902 6.49697C34.5009 6.11571 34.2085 5.79513 33.8462 5.57155C33.4839 5.34797 33.0663 5.23033 32.6406 5.23197H11.5059C11.0802 5.23033 10.6626 5.34797 10.3003 5.57155C9.93803 5.79513 9.64563 6.11571 9.45624 6.49697L5.11491 15.1815Z" fill="#1D1D35"/>
</svg>
