<svg width="24" height="25" viewBox="0 0 24 25" fill="none" xmlns="http://www.w3.org/2000/svg">
<path d="M11.998 11.0898H8.99805C8.46761 11.0898 7.95891 10.8791 7.58383 10.5041C7.20876 10.129 6.99805 9.62028 6.99805 9.08984V4.08984C6.99805 3.82463 7.1034 3.57027 7.29094 3.38274C7.47848 3.1952 7.73283 3.08984 7.99805 3.08984H12.998C13.2633 3.08984 13.5176 3.1952 13.7052 3.38274C13.8927 3.57027 13.998 3.82463 13.998 4.08984V9.08984C13.998 9.62028 13.7873 10.129 13.4123 10.5041C13.0372 10.8791 12.5285 11.0898 11.998 11.0898ZM8.99805 5.08984V9.08984H11.998V5.08984H8.99805Z" fill="#4ABB82"/>
<path d="M16.498 21.0898H3.99805C3.46761 21.0898 2.95891 20.8791 2.58383 20.5041C2.20876 20.129 1.99805 19.6203 1.99805 19.0898V5.08984C1.99805 4.55941 2.20876 4.0507 2.58383 3.67563C2.95891 3.30056 3.46761 3.08984 3.99805 3.08984H16.498C17.1611 3.08984 17.797 3.35324 18.2658 3.82208C18.7347 4.29092 18.998 4.9268 18.998 5.58984V18.5898C18.998 19.2529 18.7347 19.8888 18.2658 20.3576C17.797 20.8265 17.1611 21.0898 16.498 21.0898ZM3.99805 5.08984V19.0898H16.498C16.6307 19.0898 16.7578 19.0372 16.8516 18.9434C16.9454 18.8496 16.998 18.7225 16.998 18.5898V5.58984C16.998 5.45724 16.9454 5.33006 16.8516 5.23629C16.7578 5.14252 16.6307 5.08984 16.498 5.08984H3.99805Z" fill="#232323"/>
<path d="M19.498 21.0898H13.998C13.7328 21.0898 13.4785 20.9845 13.2909 20.797C13.1034 20.6094 12.998 20.3551 12.998 20.0898C12.998 19.8246 13.1034 19.5703 13.2909 19.3827C13.4785 19.1952 13.7328 19.0898 13.998 19.0898H19.498C19.6307 19.0898 19.7578 19.0372 19.8516 18.9434C19.9454 18.8496 19.998 18.7225 19.998 18.5898V5.58984C19.998 5.45724 19.9454 5.33006 19.8516 5.23629C19.7578 5.14252 19.6307 5.08984 19.498 5.08984H13.998C13.7328 5.08984 13.4785 4.98449 13.2909 4.79695C13.1034 4.60941 12.998 4.35506 12.998 4.08984C12.998 3.82463 13.1034 3.57027 13.2909 3.38274C13.4785 3.1952 13.7328 3.08984 13.998 3.08984H19.498C20.1611 3.08984 20.797 3.35324 21.2658 3.82208C21.7347 4.29092 21.998 4.9268 21.998 5.58984V18.5898C21.998 19.2529 21.7347 19.8888 21.2658 20.3576C20.797 20.8265 20.1611 21.0898 19.498 21.0898Z" fill="#232323"/>
<path d="M13.998 17.0898H11.998C11.7328 17.0898 11.4785 16.9845 11.2909 16.797C11.1034 16.6094 10.998 16.3551 10.998 16.0898C10.998 15.8246 11.1034 15.5703 11.2909 15.3827C11.4785 15.1952 11.7328 15.0898 11.998 15.0898H13.998C14.2633 15.0898 14.5176 15.1952 14.7052 15.3827C14.8927 15.5703 14.998 15.8246 14.998 16.0898C14.998 16.3551 14.8927 16.6094 14.7052 16.797C14.5176 16.9845 14.2633 17.0898 13.998 17.0898Z" fill="#232323"/>
</svg>
