<svg width="45" height="45" viewBox="0 0 45 45" fill="none" xmlns="http://www.w3.org/2000/svg">
<path d="M14.0115 27.5047C13.6834 27.5046 13.3661 27.3872 13.117 27.1737C12.8679 26.9602 12.7033 26.6647 12.653 26.3405L9.46296 5.62199C9.44854 5.51186 9.39398 5.41092 9.30974 5.33852C9.2255 5.26613 9.11751 5.22736 9.00646 5.22966H5.08313C4.71846 5.22966 4.36872 5.08479 4.11086 4.82693C3.853 4.56906 3.70813 4.21933 3.70813 3.85466C3.70813 3.48998 3.853 3.14025 4.11086 2.88238C4.36872 2.62452 4.71846 2.47966 5.08313 2.47966H9.00646C9.77824 2.47183 10.5264 2.74537 11.1112 3.24913C11.6959 3.7529 12.0772 4.45239 12.1836 5.21682L15.3681 25.9207C15.3958 26.0992 15.388 26.2814 15.3451 26.4569C15.3023 26.6324 15.2253 26.7978 15.1186 26.9435C15.0118 27.0893 14.8774 27.2125 14.723 27.3063C14.5686 27.4001 14.3972 27.4625 14.2186 27.49C14.1488 27.5002 14.0783 27.5051 14.0078 27.5047H14.0115Z" fill="#1D1D35"/>
<path d="M37.6247 29.0629H15.8227C15.0552 29.0668 14.312 28.7939 13.7294 28.2941C13.1468 27.7944 12.764 27.1014 12.6511 26.3422L10.1027 9.80185C10.0719 9.59981 10.0866 9.39345 10.1456 9.19777C10.2045 9.0021 10.3064 8.82204 10.4437 8.67068C10.5785 8.51598 10.7473 8.3947 10.9369 8.31644C11.1266 8.23817 11.3318 8.20504 11.5364 8.21968L39.6011 9.69918C40.0734 9.72432 40.5344 9.85359 40.9509 10.0777C41.3674 10.3019 41.7293 10.6154 42.0105 10.9957C42.2917 11.3761 42.4853 11.8139 42.5774 12.2779C42.6696 12.7418 42.658 13.2204 42.5436 13.6794L38.9594 28.0215C38.885 28.3191 38.7132 28.5832 38.4713 28.7719C38.2295 28.9606 37.9315 29.063 37.6247 29.0629ZM13.0801 11.0558L15.3699 25.9242C15.3869 26.0322 15.4418 26.1307 15.5248 26.2019C15.6078 26.2731 15.7134 26.3124 15.8227 26.3129H36.5522L39.8761 13.0138C39.8924 12.9482 39.894 12.8798 39.8807 12.8134C39.8675 12.7471 39.8397 12.6845 39.7994 12.6302C39.7591 12.5758 39.7072 12.5311 39.6476 12.4992C39.5879 12.4673 39.522 12.4489 39.4544 12.4455L13.0801 11.0558Z" fill="#1D1D35"/>
<path d="M18.8331 42.3545C20.3519 42.3545 21.5831 41.1233 21.5831 39.6045C21.5831 38.0857 20.3519 36.8545 18.8331 36.8545C17.3143 36.8545 16.0831 38.0857 16.0831 39.6045C16.0831 41.1233 17.3143 42.3545 18.8331 42.3545Z" fill="#1D1D35"/>
<path d="M31.6665 42.3545C33.1853 42.3545 34.4165 41.1233 34.4165 39.6045C34.4165 38.0857 33.1853 36.8545 31.6665 36.8545C30.1477 36.8545 28.9165 38.0857 28.9165 39.6045C28.9165 41.1233 30.1477 42.3545 31.6665 42.3545Z" fill="#1D1D35"/>
<path d="M34.8198 34.5628H14.2498C13.8851 34.5628 13.5353 34.418 13.2775 34.1601C13.0196 33.9023 12.8748 33.5525 12.8748 33.1878C12.8748 32.8232 13.0196 32.4734 13.2775 32.2156C13.5353 31.9577 13.8851 31.8128 14.2498 31.8128H34.8198C34.9216 31.8143 35.021 31.7809 35.1013 31.7183C35.1817 31.6556 35.2382 31.5674 35.2616 31.4682L39.9036 12.9423C39.9475 12.7672 40.0255 12.6024 40.1332 12.4574C40.2408 12.3124 40.3759 12.19 40.5308 12.0972C40.6857 12.0045 40.8574 11.9431 41.0361 11.9167C41.2147 11.8902 41.3968 11.8992 41.5719 11.9432C41.7471 11.9871 41.9119 12.0651 42.0569 12.1727C42.2019 12.2804 42.3242 12.4155 42.417 12.5704C42.5098 12.7253 42.5712 12.897 42.5976 13.0756C42.624 13.2543 42.615 13.4364 42.5711 13.6115L37.9328 32.1282C37.7624 32.8245 37.3627 33.4432 36.7981 33.8849C36.2334 34.3265 35.5366 34.5653 34.8198 34.5628Z" fill="#1D1D35"/>
<path d="M22.4998 21.7297C22.1351 21.7297 21.7853 21.5848 21.5275 21.3269C21.2696 21.0691 21.1248 20.7193 21.1248 20.3547V16.688C21.1248 16.3233 21.2696 15.9736 21.5275 15.7157C21.7853 15.4579 22.1351 15.313 22.4998 15.313C22.8644 15.313 23.2142 15.4579 23.472 15.7157C23.7299 15.9736 23.8748 16.3233 23.8748 16.688V20.3547C23.8748 20.7193 23.7299 21.0691 23.472 21.3269C23.2142 21.5848 22.8644 21.7297 22.4998 21.7297ZM29.8331 21.7297C29.4684 21.7297 29.1187 21.5848 28.8608 21.3269C28.603 21.0691 28.4581 20.7193 28.4581 20.3547V16.688C28.4581 16.3233 28.603 15.9736 28.8608 15.7157C29.1187 15.4579 29.4684 15.313 29.8331 15.313C30.1978 15.313 30.5475 15.4579 30.8054 15.7157C31.0632 15.9736 31.2081 16.3233 31.2081 16.688V20.3547C31.2081 20.7193 31.0632 21.0691 30.8054 21.3269C30.5475 21.5848 30.1978 21.7297 29.8331 21.7297Z" fill="#4ABB82"/>
</svg>
