<svg width="45" height="45" viewBox="0 0 45 45" fill="none" xmlns="http://www.w3.org/2000/svg">
<path d="M36.7399 41.8986H7.40658C6.55716 41.8938 5.7439 41.5542 5.14326 40.9536C4.54262 40.3529 4.20305 39.5397 4.19824 38.6903V5.69027C4.20305 4.84085 4.54262 4.02759 5.14326 3.42695C5.7439 2.82631 6.55716 2.48675 7.40658 2.48193H36.7399C37.5893 2.48675 38.4026 2.82631 39.0032 3.42695C39.6039 4.02759 39.9434 4.84085 39.9482 5.69027V38.6903C39.9434 39.5397 39.6039 40.3529 39.0032 40.9536C38.4026 41.5542 37.5893 41.8938 36.7399 41.8986ZM7.40658 5.23193C7.28502 5.23193 7.16844 5.28022 7.08248 5.36618C6.99653 5.45213 6.94824 5.56871 6.94824 5.69027V38.6903C6.94824 38.8118 6.99653 38.9284 7.08248 39.0144C7.16844 39.1003 7.28502 39.1486 7.40658 39.1486H36.7399C36.8615 39.1486 36.978 39.1003 37.064 39.0144C37.15 38.9284 37.1982 38.8118 37.1982 38.6903V5.69027C37.1982 5.56871 37.15 5.45213 37.064 5.36618C36.978 5.28022 36.8615 5.23193 36.7399 5.23193H7.40658Z" fill="#1D1D35"/>
<path d="M11.0732 41.8986H7.40658C6.55716 41.8938 5.7439 41.5542 5.14326 40.9536C4.54262 40.3529 4.20305 39.5397 4.19824 38.6903V5.69027C4.20305 4.84085 4.54262 4.02759 5.14326 3.42695C5.7439 2.82631 6.55716 2.48675 7.40658 2.48193H11.0732C11.4379 2.48193 11.7877 2.6268 12.0455 2.88466C12.3034 3.14252 12.4482 3.49226 12.4482 3.85693C12.4482 4.22161 12.3034 4.57134 12.0455 4.82921C11.7877 5.08707 11.4379 5.23193 11.0732 5.23193H7.40658C7.28502 5.23193 7.16844 5.28022 7.08248 5.36618C6.99653 5.45213 6.94824 5.56871 6.94824 5.69027V38.6903C6.94824 38.8118 6.99653 38.9284 7.08248 39.0144C7.16844 39.1003 7.28502 39.1486 7.40658 39.1486H9.69824V9.35693C9.69824 8.99226 9.84311 8.64252 10.101 8.38466C10.3588 8.1268 10.7086 7.98193 11.0732 7.98193C11.4379 7.98193 11.7877 8.1268 12.0455 8.38466C12.3034 8.64252 12.4482 8.99226 12.4482 9.35693V40.5236C12.4435 40.8868 12.2971 41.2338 12.0403 41.4906C11.7834 41.7475 11.4364 41.8939 11.0732 41.8986Z" fill="#1D1D35"/>
<path d="M25.7399 14.3984H18.4066C18.0419 14.3984 17.6922 14.2536 17.4343 13.9957C17.1764 13.7378 17.0316 13.3881 17.0316 13.0234C17.0316 12.6588 17.1764 12.309 17.4343 12.0512C17.6922 11.7933 18.0419 11.6484 18.4066 11.6484H25.7399C26.1046 11.6484 26.4543 11.7933 26.7122 12.0512C26.97 12.309 27.1149 12.6588 27.1149 13.0234C27.1149 13.3881 26.97 13.7378 26.7122 13.9957C26.4543 14.2536 26.1046 14.3984 25.7399 14.3984ZM31.2399 21.7318H18.4066C18.0419 21.7318 17.6922 21.5869 17.4343 21.329C17.1764 21.0712 17.0316 20.7214 17.0316 20.3568C17.0316 19.9921 17.1764 19.6424 17.4343 19.3845C17.6922 19.1266 18.0419 18.9818 18.4066 18.9818H31.2399C31.6046 18.9818 31.9543 19.1266 32.2122 19.3845C32.47 19.6424 32.6149 19.9921 32.6149 20.3568C32.6149 20.7214 32.47 21.0712 32.2122 21.329C31.9543 21.5869 31.6046 21.7318 31.2399 21.7318Z" fill="#4ABB82"/>
</svg>
